<svg width="156" height="32" viewBox="0 0 156 32" fill="none" xmlns="http://www.w3.org/2000/svg">
<rect width="32" height="32" rx="7.5" fill="#FEE086"/>
<path d="M5.71484 10.7893C5.71484 7.80552 8.13365 5.38672 11.1174 5.38672H20.8982C23.882 5.38672 26.3008 7.80552 26.3008 10.7893C26.3008 13.2499 24.6557 15.3263 22.4054 15.9788C22.3908 15.983 22.3806 15.9964 22.3806 16.0117C22.3806 16.027 22.3908 16.0404 22.4054 16.0447C24.6557 16.6971 26.3008 18.7735 26.3008 21.2342C26.3008 24.2179 23.882 26.6367 20.8982 26.6367H11.1174C8.13365 26.6367 5.71484 24.2179 5.71484 21.2342C5.71484 18.7896 7.33848 16.7242 9.56621 16.0576C9.5865 16.0515 9.60056 16.0329 9.60056 16.0117C9.60056 15.9905 9.5865 15.9719 9.56621 15.9658C7.33848 15.2992 5.71484 13.2339 5.71484 10.7893Z" fill="#564500"/>
<path d="M55.872 16.192L56.28 15.256C57.672 15.288 58.816 15.504 59.712 15.904C60.624 16.288 61.304 16.832 61.752 17.536C62.2 18.224 62.424 19.024 62.424 19.936C62.424 20.912 62.2 21.784 61.752 22.552C61.304 23.304 60.632 23.904 59.736 24.352C58.856 24.784 57.752 25 56.424 25H43.128L44.52 15.76L43.128 7H55.944C57.608 7 58.904 7.392 59.832 8.176C60.76 8.944 61.224 10.016 61.224 11.392C61.224 12.144 61.048 12.864 60.696 13.552C60.344 14.24 59.776 14.824 58.992 15.304C58.224 15.768 57.184 16.064 55.872 16.192ZM48.048 23.848L46.128 21.52H55.08C55.8 21.52 56.36 21.344 56.76 20.992C57.16 20.64 57.36 20.152 57.36 19.528C57.36 18.904 57.144 18.408 56.712 18.04C56.28 17.656 55.64 17.464 54.792 17.464H47.4V14.056H54.12C54.696 14.056 55.176 13.888 55.56 13.552C55.96 13.2 56.16 12.728 56.16 12.136C56.16 11.656 55.992 11.264 55.656 10.96C55.32 10.64 54.84 10.48 54.216 10.48H46.152L48.048 8.152L49.272 15.76L48.048 23.848ZM69.6218 25.384C68.3418 25.384 67.2458 25.12 66.3338 24.592C65.4378 24.064 64.7498 23.32 64.2698 22.36C63.7898 21.384 63.5498 20.248 63.5498 18.952V11.296H68.4458V18.256C68.4458 19.264 68.6938 20.04 69.1898 20.584C69.6858 21.128 70.3978 21.4 71.3258 21.4C72.0138 21.4 72.5898 21.264 73.0538 20.992C73.5178 20.704 73.8778 20.296 74.1338 19.768C74.3898 19.24 74.5178 18.608 74.5178 17.872L76.0298 18.664C75.8538 20.12 75.4538 21.352 74.8298 22.36C74.2218 23.352 73.4698 24.104 72.5738 24.616C71.6778 25.128 70.6938 25.384 69.6218 25.384ZM75.4058 25L74.5178 19.504V11.296H79.4138V20.272L80.3018 25H75.4058ZM81.006 11.296H85.926L86.814 16.768V25H81.918V16.024L81.006 11.296ZM91.854 10.888C93.166 10.888 94.286 11.152 95.214 11.68C96.142 12.208 96.846 12.952 97.326 13.912C97.822 14.872 98.07 16.008 98.07 17.32V25H93.174V18.04C93.174 17.016 92.91 16.232 92.382 15.688C91.87 15.144 91.126 14.872 90.15 14.872C89.478 14.872 88.886 15.016 88.374 15.304C87.878 15.592 87.494 16 87.222 16.528C86.95 17.056 86.814 17.68 86.814 18.4L85.302 17.608C85.494 16.152 85.902 14.928 86.526 13.936C87.15 12.928 87.918 12.168 88.83 11.656C89.742 11.144 90.75 10.888 91.854 10.888ZM110.124 7C111.628 7 112.924 7.256 114.012 7.768C115.116 8.28 115.956 9.008 116.532 9.952C117.108 10.88 117.396 11.968 117.396 13.216C117.396 14.448 117.108 15.536 116.532 16.48C115.956 17.408 115.116 18.128 114.012 18.64C112.924 19.152 111.628 19.408 110.124 19.408H102.324V15.424H109.812C110.612 15.424 111.236 15.232 111.684 14.848C112.132 14.448 112.356 13.904 112.356 13.216C112.356 12.512 112.132 11.968 111.684 11.584C111.236 11.184 110.612 10.984 109.812 10.984H102.756L104.988 8.68V25H100.02V7H110.124ZM126.343 25.384C124.583 25.384 123.047 25.088 121.735 24.496C120.423 23.888 119.399 23.04 118.663 21.952C117.927 20.848 117.559 19.584 117.559 18.16C117.559 16.704 117.927 15.432 118.663 14.344C119.399 13.256 120.423 12.408 121.735 11.8C123.047 11.192 124.583 10.888 126.343 10.888C128.087 10.888 129.615 11.192 130.927 11.8C132.255 12.408 133.287 13.256 134.023 14.344C134.759 15.432 135.127 16.704 135.127 18.16C135.127 19.584 134.759 20.848 134.023 21.952C133.287 23.04 132.255 23.888 130.927 24.496C129.615 25.088 128.087 25.384 126.343 25.384ZM126.343 21.76C127.143 21.76 127.823 21.616 128.383 21.328C128.959 21.04 129.399 20.624 129.703 20.08C130.007 19.536 130.159 18.896 130.159 18.16C130.159 17.392 130.007 16.744 129.703 16.216C129.399 15.672 128.959 15.256 128.383 14.968C127.823 14.68 127.143 14.536 126.343 14.536C125.543 14.536 124.855 14.68 124.279 14.968C123.703 15.256 123.263 15.672 122.959 16.216C122.655 16.744 122.503 17.384 122.503 18.136C122.503 18.888 122.655 19.536 122.959 20.08C123.263 20.624 123.703 21.04 124.279 21.328C124.855 21.616 125.543 21.76 126.343 21.76ZM148.951 25L148.303 19.864L149.143 18.184L148.327 16.072L149.479 6.52H154.567L153.151 17.776L154.015 25H148.951ZM150.007 18.16C149.783 19.6 149.335 20.864 148.663 21.952C148.007 23.04 147.167 23.888 146.143 24.496C145.135 25.088 143.983 25.384 142.687 25.384C141.343 25.384 140.159 25.088 139.135 24.496C138.127 23.888 137.335 23.04 136.759 21.952C136.183 20.848 135.895 19.584 135.895 18.16C135.895 16.704 136.183 15.432 136.759 14.344C137.335 13.256 138.127 12.408 139.135 11.8C140.159 11.192 141.343 10.888 142.687 10.888C143.983 10.888 145.135 11.192 146.143 11.8C147.167 12.392 148.015 13.232 148.687 14.32C149.359 15.392 149.799 16.672 150.007 18.16ZM140.863 18.16C140.863 18.832 140.999 19.432 141.271 19.96C141.559 20.488 141.951 20.904 142.447 21.208C142.943 21.496 143.511 21.64 144.151 21.64C144.823 21.64 145.455 21.496 146.047 21.208C146.639 20.904 147.159 20.488 147.607 19.96C148.055 19.432 148.391 18.832 148.615 18.16C148.391 17.472 148.055 16.864 147.607 16.336C147.159 15.808 146.639 15.392 146.047 15.088C145.455 14.784 144.823 14.632 144.151 14.632C143.511 14.632 142.943 14.784 142.447 15.088C141.951 15.392 141.559 15.808 141.271 16.336C140.999 16.864 140.863 17.472 140.863 18.16Z" fill="#FFEDE0" fill-opacity="0.831373"/>
</svg>
