<svg width="32" height="32" viewBox="0 0 32 32" fill="none" xmlns="http://www.w3.org/2000/svg">
<rect width="32" height="32" rx="7.5" fill="#FEE086"/>
<path d="M5.71484 10.7893C5.71484 7.80552 8.13365 5.38672 11.1174 5.38672H20.8982C23.882 5.38672 26.3008 7.80552 26.3008 10.7893C26.3008 13.2499 24.6557 15.3263 22.4054 15.9788C22.3908 15.983 22.3806 15.9964 22.3806 16.0117C22.3806 16.027 22.3908 16.0404 22.4054 16.0447C24.6557 16.6971 26.3008 18.7735 26.3008 21.2342C26.3008 24.2179 23.882 26.6367 20.8982 26.6367H11.1174C8.13365 26.6367 5.71484 24.2179 5.71484 21.2342C5.71484 18.7896 7.33848 16.7242 9.56621 16.0576C9.5865 16.0515 9.60056 16.0329 9.60056 16.0117C9.60056 15.9905 9.5865 15.9719 9.56621 15.9658C7.33848 15.2992 5.71484 13.2339 5.71484 10.7893Z" fill="#564500"/>
</svg>
